<svg width="380" height="401" viewBox="0 0 380 401" fill="none" xmlns="http://www.w3.org/2000/svg">
<path d="M183.33 400.206V218.917L5.01465 116.306V297.595L183.33 400.206Z" fill="#4D42F0"/>
<path d="M183.33 218.917L374.579 108.421V289.745L183.33 400.206V218.917Z" fill="#4D42F0"/>
<path opacity="0.15" d="M183.33 218.917L374.579 108.421V289.745L183.33 400.206V218.917Z" fill="white"/>
<path d="M183.33 218.917L0 113.401L196.264 0L379.56 105.516L183.33 218.917Z" fill="#4D42F0"/>
<path opacity="0.3" d="M183.33 218.917L0 113.401L196.264 0L379.56 105.516L183.33 218.917Z" fill="white"/>
<path d="M183.33 218.917V251.287L0 145.806V113.401L183.33 218.917Z" fill="#4D42F0"/>
<path d="M379.56 105.516L183.33 218.917V251.287L379.56 137.921V105.516Z" fill="#4D42F0"/>
<path opacity="0.15" d="M379.56 105.516L183.33 218.917V251.287L379.56 137.921V105.516Z" fill="white"/>
<path opacity="0.1" d="M5.18774 148.677V155.801L183.503 258.412V251.287L5.18774 148.677ZM374.752 140.792L183.503 251.46V258.585L374.752 147.916V140.792Z" fill="black"/>
<path d="M130.866 128.237L157.046 143.351L248.659 90.437L222.479 75.3584L130.866 128.237Z" fill="#4D42F0"/>
<path opacity="0.2" d="M242.123 94.2412L248.659 90.437L222.479 75.3584L222.514 82.9668L242.123 94.2412Z" fill="black"/>
<path opacity="0.1" d="M137.437 132.007L222.479 82.8977V75.3584L130.866 128.237L137.437 132.007Z" fill="black"/>
<path d="M245.65 79.6469L237.419 96.8005L157.046 143.351L140.273 133.667L185.301 38.5957L245.65 79.6469Z" fill="#FAFAFA"/>
</svg>
