<svg width="100" height="100" viewBox="0 0 100 100" fill="none" xmlns="http://www.w3.org/2000/svg">
<g clip-path="url(#clip0_221_4669)">
<rect width="100" height="100" rx="50" fill="#101928"/>
<path fill-rule="evenodd" clip-rule="evenodd" d="M26.8503 31.6008C28.15 31.0417 29.6578 31.3099 30.6851 32.2828L30.6945 32.2916L30.7318 32.3267L30.8864 32.4711C31.0235 32.5986 31.2263 32.7858 31.4825 33.0187C31.9957 33.4853 32.7188 34.131 33.5544 34.8443C35.2676 36.3066 37.299 37.9189 38.9336 38.9051C44.2715 42.1258 52.6904 43.0492 60.3558 42.9931C64.0842 42.9658 67.4463 42.711 69.8771 42.4624C71.0902 42.3383 72.0655 42.2164 72.7318 42.1264C73.0647 42.0814 73.3201 42.0445 73.4889 42.0193L73.6758 41.9909L73.7184 41.9842L73.7259 41.983C74.9719 41.7818 76.2318 42.2588 77.0315 43.2353C77.8314 44.212 78.0509 45.5407 77.6076 46.7228L72.9092 59.2519L80.8365 71.9355C81.4544 72.9243 81.5461 74.1539 81.0817 75.2234C80.6172 76.2929 79.656 77.0653 78.5116 77.2887C59.8534 80.9304 48.5705 78.4156 31.7915 73.9533V102.146C31.7915 104.102 30.2058 105.688 28.2498 105.688C26.2938 105.688 24.7081 104.102 24.7081 102.146V34.8542C24.7081 33.4392 25.5504 32.16 26.8503 31.6008ZM60.4077 50.0762C63.6183 50.0527 66.5629 49.8728 68.939 49.6659L65.6628 58.4024C65.2757 59.4346 65.3914 60.5882 65.9756 61.523L72.026 71.2036C57.3895 73.2665 47.6599 70.8617 31.7915 66.6219V42.5422C32.934 43.4235 34.1373 44.284 35.2743 44.97C42.4272 49.2859 52.6021 50.1334 60.4077 50.0762Z" fill="#F7F9FC"/>
</g>
<defs>
<clipPath id="clip0_221_4669">
<rect width="100" height="100" rx="50" fill="white"/>
</clipPath>
</defs>
</svg>
