<svg width="20" height="20" viewBox="0 0 20 20" fill="none" xmlns="http://www.w3.org/2000/svg">
<path d="M16.6667 5.00002H13.3333V4.16669C13.3333 3.50365 13.0699 2.86776 12.6011 2.39892C12.1323 1.93008 11.4964 1.66669 10.8333 1.66669H9.16667C8.50363 1.66669 7.86774 1.93008 7.3989 2.39892C6.93006 2.86776 6.66667 3.50365 6.66667 4.16669V5.00002H3.33333C3.11232 5.00002 2.90036 5.08782 2.74408 5.2441C2.5878 5.40038 2.5 5.61234 2.5 5.83335C2.5 6.05437 2.5878 6.26633 2.74408 6.42261C2.90036 6.57889 3.11232 6.66669 3.33333 6.66669H4.16667V15.8334C4.16667 16.4964 4.43006 17.1323 4.8989 17.6011C5.36774 18.07 6.00363 18.3334 6.66667 18.3334H13.3333C13.9964 18.3334 14.6323 18.07 15.1011 17.6011C15.5699 17.1323 15.8333 16.4964 15.8333 15.8334V6.66669H16.6667C16.8877 6.66669 17.0996 6.57889 17.2559 6.42261C17.4122 6.26633 17.5 6.05437 17.5 5.83335C17.5 5.61234 17.4122 5.40038 17.2559 5.2441C17.0996 5.08782 16.8877 5.00002 16.6667 5.00002ZM8.33333 4.16669C8.33333 3.94567 8.42113 3.73371 8.57741 3.57743C8.73369 3.42115 8.94565 3.33335 9.16667 3.33335H10.8333C11.0543 3.33335 11.2663 3.42115 11.4226 3.57743C11.5789 3.73371 11.6667 3.94567 11.6667 4.16669V5.00002H8.33333V4.16669ZM14.1667 15.8334C14.1667 16.0544 14.0789 16.2663 13.9226 16.4226C13.7663 16.5789 13.5543 16.6667 13.3333 16.6667H6.66667C6.44565 16.6667 6.23369 16.5789 6.07741 16.4226C5.92113 16.2663 5.83333 16.0544 5.83333 15.8334V6.66669H14.1667V15.8334Z" fill="#D42620"/>
</svg>
