<svg width="20" height="20" viewBox="0 0 20 20" fill="none" xmlns="http://www.w3.org/2000/svg">
<path fill-rule="evenodd" clip-rule="evenodd" d="M17.3667 3.05102C16.065 1.74927 13.9544 1.74927 12.6527 3.05102L12.1262 3.57746L3.81383 11.8899C3.30384 12.3998 2.97301 13.0615 2.87102 13.7755L2.55675 15.9754C2.39961 17.0753 3.34242 18.0181 4.44237 17.861L6.64225 17.5467C7.35624 17.4447 8.01788 17.1139 8.52787 16.6039L16.8403 8.2915L17.3667 7.76506C18.6685 6.46332 18.6685 4.35277 17.3667 3.05102ZM16.1882 4.22953C16.818 4.85933 16.8384 5.86777 16.2494 6.52209L13.8956 4.16836C14.55 3.57934 15.5584 3.59973 16.1882 4.22953ZM12.7155 5.34522L15.0725 7.70225L7.34936 15.4254C7.09436 15.6804 6.76354 15.8458 6.40655 15.8968L4.20666 16.2111L4.52093 14.0112C4.57193 13.6542 4.73734 13.3234 4.99234 13.0684L12.7155 5.34522Z" fill="#667185"/>
</svg>
