<svg width="14" height="15" viewBox="0 0 14 15" fill="none" xmlns="http://www.w3.org/2000/svg">
<path fill-rule="evenodd" clip-rule="evenodd" d="M3.26948 1.42249C3.48356 1.3304 3.7319 1.37456 3.9011 1.53481L3.90264 1.53626L3.90878 1.54204L3.93425 1.56582C3.95683 1.58682 3.99024 1.61766 4.03243 1.65602C4.11697 1.73287 4.23606 1.83923 4.37369 1.9567C4.65586 2.19755 4.99045 2.46311 5.25968 2.62555C6.13885 3.15602 7.5255 3.3081 8.78804 3.29886C9.40213 3.29436 9.95589 3.2524 10.3562 3.21146C10.5561 3.19102 10.7167 3.17093 10.8264 3.15611C10.8813 3.1487 10.9233 3.14262 10.9511 3.13848L10.9819 3.1338L10.9889 3.1327L10.9902 3.1325C11.1954 3.09936 11.4029 3.17792 11.5346 3.33875C11.6664 3.49962 11.7025 3.71847 11.6295 3.91317L10.8557 5.97679L12.1613 8.06585C12.2631 8.22871 12.2782 8.43123 12.2017 8.60739C12.1252 8.78354 11.9669 8.91075 11.7784 8.94754C8.7053 9.54736 6.84693 9.13316 4.08332 8.39819V13.0417C4.08332 13.3638 3.82216 13.625 3.49999 13.625C3.17782 13.625 2.91666 13.3638 2.91666 13.0417V1.95835C2.91666 1.72528 3.05539 1.51459 3.26948 1.42249ZM8.79659 4.46549C9.32539 4.46162 9.81038 4.43199 10.2017 4.39792L9.66213 5.83686C9.59838 6.00687 9.61742 6.19687 9.71366 6.35085L10.7102 7.94529C8.29947 8.28507 6.69694 7.88898 4.08332 7.19067V3.2246C4.2715 3.36975 4.4697 3.51148 4.65696 3.62447C5.8351 4.33532 7.51096 4.47491 8.79659 4.46549Z" fill="#475367"/>
</svg>
