<svg width="49" height="48" viewBox="0 0 49 48" fill="none" xmlns="http://www.w3.org/2000/svg">
<path d="M38.3333 21.9999H10.3333C8.12411 21.9999 6.33325 23.7907 6.33325 25.9999V39.9999C6.33325 42.209 8.12411 43.9999 10.3333 43.9999H38.3333C40.5424 43.9999 42.3333 42.209 42.3333 39.9999V25.9999C42.3333 23.7907 40.5424 21.9999 38.3333 21.9999Z" stroke="#344054" stroke-width="4" stroke-linecap="round" stroke-linejoin="round"/>
<path d="M14.3333 21.9999V13.9999C14.3333 11.3477 15.3869 8.80417 17.2622 6.92881C19.1376 5.05345 21.6811 3.99988 24.3333 3.99988C26.9855 3.99988 29.529 5.05345 31.4044 6.92881C33.2797 8.80417 34.3333 11.3477 34.3333 13.9999V21.9999" stroke="#344054" stroke-width="4" stroke-linecap="round" stroke-linejoin="round"/>
</svg>
