<svg width="138" height="32" viewBox="0 0 138 32" fill="none" xmlns="http://www.w3.org/2000/svg">
<rect width="32" height="32" rx="5.25" fill="#4D42F0"/>
<path opacity="0.8" d="M15.4381 4L4 10.7166V10.7293L12.8447 15.9202L15.4381 14.3946V4Z" fill="#DBD9FC"/>
<path opacity="0.8" d="M4 21.1318L15.4381 27.842V17.4475L12.8447 15.9219L4 21.1128V21.1318Z" fill="#DBD9FC"/>
<path opacity="0.8" d="M27.9965 10.8729L16.5586 4.15625V14.5508L19.1591 16.0764L27.9965 10.8855V10.8729Z" fill="#DBD9FC"/>
<path opacity="0.8" d="M16.5586 27.9984L27.9965 21.2817V21.2691L19.1591 16.0781L16.5586 17.6038V27.9984Z" fill="#DBD9FC"/>
<path opacity="0.9" d="M4 10.7188V21.1007L12.8447 15.9097L4 10.7188Z" fill="white"/>
<path opacity="0.9" d="M27.9992 21.2777V10.8958L19.1615 16.0868L27.9992 21.2777Z" fill="white"/>
<path d="M39.7104 11.444H42.6624V12.98C43.1424 12.404 43.7344 11.956 44.4384 11.636C45.1584 11.316 45.9664 11.156 46.8624 11.156C48.0784 11.156 49.1904 11.46 50.1984 12.068C51.2064 12.66 51.9984 13.476 52.5744 14.516C53.1504 15.556 53.4384 16.708 53.4384 17.972C53.4384 19.236 53.1504 20.388 52.5744 21.428C51.9984 22.468 51.2064 23.292 50.1984 23.9C49.2064 24.492 48.0864 24.788 46.8384 24.788C46.0384 24.788 45.2944 24.66 44.6064 24.404C43.9184 24.132 43.3344 23.748 42.8544 23.252V29.3H39.7104V11.444ZM42.8544 17.972C42.8544 18.724 43.0064 19.404 43.3104 20.012C43.6304 20.604 44.0624 21.068 44.6064 21.404C45.1664 21.74 45.7904 21.908 46.4784 21.908C47.5504 21.908 48.4304 21.54 49.1184 20.804C49.8224 20.052 50.1744 19.108 50.1744 17.972C50.1744 17.236 50.0144 16.572 49.6944 15.98C49.3744 15.372 48.9344 14.9 48.3744 14.564C47.8144 14.212 47.1824 14.036 46.4784 14.036C45.7904 14.036 45.1664 14.204 44.6064 14.54C44.0624 14.876 43.6304 15.348 43.3104 15.956C43.0064 16.548 42.8544 17.22 42.8544 17.972ZM55.3554 11.444H58.3074V13.268C58.6274 12.564 59.0834 12.06 59.6754 11.756C60.2674 11.452 60.9874 11.3 61.8354 11.3H62.6034V14.084H61.4754C60.5794 14.084 59.8594 14.364 59.3154 14.924C58.7714 15.484 58.4994 16.252 58.4994 17.228V24.5H55.3554V11.444ZM70.236 24.788C68.94 24.788 67.764 24.492 66.708 23.9C65.668 23.292 64.844 22.468 64.236 21.428C63.628 20.388 63.324 19.236 63.324 17.972C63.324 16.708 63.62 15.556 64.212 14.516C64.82 13.476 65.652 12.66 66.708 12.068C67.764 11.46 68.94 11.156 70.236 11.156C71.516 11.156 72.684 11.46 73.74 12.068C74.796 12.66 75.628 13.476 76.236 14.516C76.844 15.556 77.148 16.708 77.148 17.972C77.148 19.236 76.844 20.388 76.236 21.428C75.628 22.468 74.796 23.292 73.74 23.9C72.684 24.492 71.516 24.788 70.236 24.788ZM66.588 17.972C66.588 19.124 66.924 20.068 67.596 20.804C68.284 21.54 69.164 21.908 70.236 21.908C71.292 21.908 72.156 21.54 72.828 20.804C73.516 20.052 73.86 19.108 73.86 17.972C73.86 16.836 73.516 15.9 72.828 15.164C72.156 14.412 71.292 14.036 70.236 14.036C69.548 14.036 68.924 14.204 68.364 14.54C67.804 14.876 67.364 15.348 67.044 15.956C66.74 16.548 66.588 17.22 66.588 17.972ZM77.8517 11.444H81.2837L84.3797 19.964L87.4757 11.444H90.9077L85.7717 24.5H82.9877L77.8517 11.444ZM98.5494 24.788C97.2534 24.788 96.0774 24.492 95.0214 23.9C93.9814 23.292 93.1574 22.468 92.5494 21.428C91.9414 20.388 91.6374 19.236 91.6374 17.972C91.6374 16.708 91.9334 15.556 92.5254 14.516C93.1334 13.476 93.9654 12.66 95.0214 12.068C96.0774 11.46 97.2534 11.156 98.5494 11.156C99.8294 11.156 100.997 11.46 102.053 12.068C103.109 12.66 103.941 13.476 104.549 14.516C105.157 15.556 105.461 16.708 105.461 17.972C105.461 19.236 105.157 20.388 104.549 21.428C103.941 22.468 103.109 23.292 102.053 23.9C100.997 24.492 99.8294 24.788 98.5494 24.788ZM94.9014 17.972C94.9014 19.124 95.2374 20.068 95.9094 20.804C96.5974 21.54 97.4774 21.908 98.5494 21.908C99.6054 21.908 100.469 21.54 101.141 20.804C101.829 20.052 102.173 19.108 102.173 17.972C102.173 16.836 101.829 15.9 101.141 15.164C100.469 14.412 99.6054 14.036 98.5494 14.036C97.8614 14.036 97.2374 14.204 96.6774 14.54C96.1174 14.876 95.6774 15.348 95.3574 15.956C95.0534 16.548 94.9014 17.22 94.9014 17.972ZM113.317 24.644C111.845 24.644 110.701 24.244 109.885 23.444C109.085 22.628 108.685 21.484 108.685 20.012V14.252H106.429V11.444H106.669C107.309 11.444 107.805 11.276 108.157 10.94C108.509 10.604 108.685 10.116 108.685 9.476V8.468H111.829V11.444H114.829V14.252H111.829V19.844C111.829 21.204 112.565 21.884 114.037 21.884C114.293 21.884 114.573 21.86 114.877 21.812V24.5C114.269 24.596 113.749 24.644 113.317 24.644ZM120.759 24.788C119.383 24.788 118.287 24.452 117.471 23.78C116.671 23.108 116.271 22.196 116.271 21.044C116.271 19.94 116.647 19.028 117.399 18.308C118.151 17.588 119.279 17.108 120.783 16.868L124.671 16.244V15.812C124.671 15.236 124.447 14.764 123.999 14.396C123.567 14.028 122.991 13.844 122.271 13.844C121.599 13.844 120.999 14.028 120.471 14.396C119.959 14.748 119.583 15.22 119.343 15.812L116.775 14.564C117.159 13.54 117.863 12.716 118.887 12.092C119.911 11.468 121.079 11.156 122.391 11.156C123.447 11.156 124.383 11.356 125.199 11.756C126.031 12.14 126.671 12.692 127.119 13.412C127.583 14.116 127.815 14.916 127.815 15.812V24.5H124.839V23.108C123.815 24.228 122.455 24.788 120.759 24.788ZM119.535 20.924C119.535 21.372 119.703 21.732 120.039 22.004C120.375 22.26 120.807 22.388 121.335 22.388C122.311 22.388 123.111 22.084 123.735 21.476C124.359 20.852 124.671 20.084 124.671 19.172V18.644L121.383 19.196C120.759 19.324 120.295 19.532 119.991 19.82C119.687 20.092 119.535 20.46 119.535 20.924ZM130.241 11.444H133.193V13.268C133.513 12.564 133.969 12.06 134.561 11.756C135.153 11.452 135.873 11.3 136.721 11.3H137.489V14.084H136.361C135.465 14.084 134.745 14.364 134.201 14.924C133.657 15.484 133.385 16.252 133.385 17.228V24.5H130.241V11.444Z" fill="#4D42F0"/>
</svg>
