<svg width="41" height="40" viewBox="0 0 41 40" fill="none" xmlns="http://www.w3.org/2000/svg">
<rect x="0.5" width="40" height="40" rx="7.5" fill="#6B62F2"/>
<path opacity="0.8" d="M19.7976 5L5.5 13.3958V13.4116L16.5558 19.9003L19.7976 17.9932V5Z" fill="#DBD9FC"/>
<path opacity="0.8" d="M5.5 26.4187L19.7976 34.8064V21.8133L16.5558 19.9062L5.5 26.3949V26.4187Z" fill="#DBD9FC"/>
<path opacity="0.8" d="M35.4966 13.5911L21.1992 5.19531V18.1885L24.4499 20.0956L35.4966 13.6069V13.5911Z" fill="#DBD9FC"/>
<path opacity="0.8" d="M21.1992 34.9941L35.4966 26.5983V26.5824L24.4499 20.0938L21.1992 22.0008V34.9941Z" fill="#DBD9FC"/>
<path opacity="0.9" d="M5.5 13.3984V26.3758L16.5558 19.8871L5.5 13.3984Z" fill="white"/>
<path opacity="0.9" d="M35.4983 26.5946V13.6172L24.4512 20.1059L35.4983 26.5946Z" fill="white"/>
</svg>
