<svg width="32" height="32" viewBox="0 0 32 32" fill="none" xmlns="http://www.w3.org/2000/svg">
<g clip-path="url(#clip0_225_6117)">
<rect width="32" height="32" rx="16" fill="#101928"/>
<path fill-rule="evenodd" clip-rule="evenodd" d="M8.5921 10.1122C9.00802 9.93332 9.49052 10.0191 9.81925 10.3305L9.82224 10.3333L9.83418 10.3445L9.88365 10.3907C9.92753 10.4315 9.99243 10.4914 10.0744 10.566C10.2387 10.7153 10.47 10.9219 10.7374 11.1501C11.2856 11.6181 11.9357 12.134 12.4588 12.4496C14.1669 13.4802 16.8609 13.7757 19.3139 13.7577C20.507 13.749 21.5828 13.6675 22.3607 13.5879C22.7489 13.5482 23.061 13.5092 23.2742 13.4804C23.3807 13.466 23.4624 13.4542 23.5164 13.4462L23.5763 13.4371L23.5899 13.4349L23.5923 13.4345C23.991 13.3702 24.3942 13.5228 24.6501 13.8352C24.9061 14.1478 24.9763 14.573 24.8345 14.9513L23.331 18.9606L25.8677 23.0193C26.0654 23.3357 26.0948 23.7292 25.9461 24.0715C25.7975 24.4137 25.4899 24.6609 25.1237 24.7323C19.1531 25.8977 15.5426 25.093 10.1733 23.665V32.6867C10.1733 33.3126 9.66587 33.82 9.03995 33.82C8.41403 33.82 7.90662 33.3126 7.90662 32.6867V11.1533C7.90662 10.7005 8.17615 10.2912 8.5921 10.1122ZM19.3305 16.0244C20.3579 16.0168 21.3001 15.9593 22.0605 15.8931L21.0121 18.6887C20.8882 19.019 20.9253 19.3882 21.1122 19.6873L23.0483 22.7851C18.3647 23.4453 15.2512 22.6757 10.1733 21.319V13.6135C10.5389 13.8955 10.924 14.1709 11.2878 14.3904C13.5767 15.7715 16.8327 16.0426 19.3305 16.0244Z" fill="#F7F9FC"/>
</g>
<defs>
<clipPath id="clip0_225_6117">
<rect width="32" height="32" rx="16" fill="white"/>
</clipPath>
</defs>
</svg>
