<svg width="40" height="40" viewBox="0 0 40 40" fill="none" xmlns="http://www.w3.org/2000/svg">
<rect width="40" height="40" rx="20" fill="#F0F2F5"/>
<path fill-rule="evenodd" clip-rule="evenodd" d="M14.6707 11.3178C14.9765 11.1863 15.3313 11.2494 15.573 11.4783L15.5752 11.4804L15.584 11.4886L15.6203 11.5226C15.6526 11.5526 15.7003 11.5967 15.7606 11.6515C15.8814 11.7612 16.0515 11.9132 16.2481 12.081C16.6512 12.4251 17.1292 12.8044 17.5138 13.0365C18.7698 13.7943 20.7507 14.0116 22.5543 13.9984C23.4316 13.9919 24.2227 13.932 24.7946 13.8735C25.0801 13.8443 25.3095 13.8156 25.4663 13.7944C25.5447 13.7839 25.6047 13.7752 25.6444 13.7693L25.6884 13.7626L25.6985 13.761L25.7002 13.7607C25.9934 13.7134 26.2898 13.8256 26.478 14.0554C26.6662 14.2852 26.7179 14.5978 26.6136 14.876L25.5081 17.824L27.3733 20.8084C27.5187 21.041 27.5403 21.3303 27.431 21.582C27.3217 21.8336 27.0955 22.0154 26.8263 22.0679C22.4361 22.9248 19.7813 22.3331 15.8333 21.2831V27.9167C15.8333 28.3769 15.4602 28.75 15 28.75C14.5397 28.75 14.1666 28.3769 14.1666 27.9167V12.0834C14.1666 11.7504 14.3648 11.4494 14.6707 11.3178ZM22.5665 15.665C23.322 15.6595 24.0148 15.6171 24.5739 15.5685L23.803 17.6241C23.7119 17.867 23.7392 18.1384 23.8766 18.3584L25.3002 20.6361C21.8564 21.1215 19.567 20.5557 15.8333 19.5581V13.8923C16.1021 14.0996 16.3853 14.3021 16.6528 14.4635C18.3358 15.479 20.7299 15.6784 22.5665 15.665Z" fill="#344054"/>
</svg>
