<svg width="40" height="40" viewBox="0 0 40 40" fill="none" xmlns="http://www.w3.org/2000/svg">
<rect width="40" height="40" rx="20" fill="#F0F2F5"/>
<path fill-rule="evenodd" clip-rule="evenodd" d="M21.6667 12.5C18.9053 12.5 16.6667 14.7386 16.6667 17.5C16.6667 20.2614 18.9053 22.5 21.6667 22.5C24.4281 22.5 26.6667 20.2614 26.6667 17.5C26.6667 14.7386 24.4281 12.5 21.6667 12.5ZM18.3333 17.5C18.3333 15.6591 19.8257 14.1667 21.6667 14.1667C23.5076 14.1667 25 15.6591 25 17.5C25 19.3409 23.5076 20.8333 21.6667 20.8333C19.8257 20.8333 18.3333 19.3409 18.3333 17.5Z" fill="#344054"/>
<path d="M16.7962 27.106C16.5535 27.4971 16.0398 27.6174 15.6487 27.3748C15.2576 27.1321 15.1373 26.6184 15.3799 26.2273C16.5211 24.388 18.8557 22.5 21.6667 22.5C24.4777 22.5 26.8123 24.388 27.9534 26.2273C28.1961 26.6184 28.0757 27.1321 27.6846 27.3748C27.2936 27.6174 26.7798 27.4971 26.5372 27.106C25.6021 25.5988 23.737 24.1667 21.6667 24.1667C19.5964 24.1667 17.7313 25.5988 16.7962 27.106Z" fill="#344054"/>
<path d="M16.5816 15.4664C16.7842 15.8797 16.6135 16.3789 16.2002 16.5815C15.443 16.9529 15 17.6265 15 18.3333C15 19.0402 15.443 19.7138 16.2002 20.0851C16.6135 20.2878 16.7842 20.787 16.5816 21.2002C16.3789 21.6135 15.8797 21.7842 15.4664 21.5815C14.2358 20.9781 13.3333 19.7779 13.3333 18.3333C13.3333 16.8887 14.2358 15.6886 15.4664 15.0851C15.8797 14.8825 16.3789 15.0532 16.5816 15.4664Z" fill="#344054"/>
<path d="M13.4628 27.106C13.2202 27.4971 12.7065 27.6174 12.3154 27.3748C11.9243 27.1321 11.804 26.6184 12.0466 26.2273C12.5292 25.4495 13.3013 24.8003 14.1627 24.2966C14.56 24.0643 15.0704 24.198 15.3027 24.5953C15.535 24.9926 15.4013 25.503 15.004 25.7354C14.2842 26.1562 13.7547 26.6356 13.4628 27.106Z" fill="#344054"/>
</svg>
