<svg width="40" height="40" viewBox="0 0 40 40" fill="none" xmlns="http://www.w3.org/2000/svg">
<rect width="40" height="40" rx="20" fill="#F0F2F5"/>
<g clip-path="url(#clip0_387_1829)">
<path fill-rule="evenodd" clip-rule="evenodd" d="M20 12.5C17.6988 12.5 15.8333 14.3655 15.8333 16.6667C15.8333 18.9679 17.6988 20.8333 20 20.8333C22.3012 20.8333 24.1667 18.9679 24.1667 16.6667C24.1667 14.3655 22.3012 12.5 20 12.5ZM17.5 16.6667C17.5 15.286 18.6193 14.1667 20 14.1667C21.3807 14.1667 22.5 15.286 22.5 16.6667C22.5 18.0474 21.3807 19.1667 20 19.1667C18.6193 19.1667 17.5 18.0474 17.5 16.6667Z" fill="#344054"/>
<path fill-rule="evenodd" clip-rule="evenodd" d="M30 20C30 25.5228 25.5228 30 20 30L19.9867 30C14.47 29.9928 10 25.5184 10 20C10 14.4772 14.4772 10 20 10C25.5228 10 30 14.4772 30 20ZM11.6667 20C11.6667 15.3976 15.3976 11.6667 20 11.6667C24.6024 11.6667 28.3333 15.3976 28.3333 20C28.3333 21.9891 27.6364 23.8155 26.4734 25.2483C26.4391 25.1693 26.4001 25.0903 26.3561 25.0114C25.2261 22.9812 22.8764 20.8333 19.9974 20.8333C17.1185 20.8333 14.7688 22.9812 13.6387 25.0114C13.5955 25.089 13.5571 25.1667 13.5235 25.2444C12.3623 23.8122 11.6667 21.9874 11.6667 20ZM16.2237 27.3588C17.357 27.9639 18.9243 28.3321 19.992 28.3333L19.9974 28.3333C21.0687 28.3333 22.6447 27.9718 23.7807 27.3702C24.3533 27.067 24.7203 26.7516 24.8906 26.4785C25.0234 26.2656 25.0455 26.0836 24.8999 25.822C23.9343 24.0873 22.0452 22.5 19.9974 22.5C17.9497 22.5 16.0606 24.0873 15.095 25.822C14.957 26.0699 14.9756 26.2466 15.1109 26.4621C15.283 26.7364 15.6518 27.0535 16.2237 27.3588Z" fill="#344054"/>
</g>
<defs>
<clipPath id="clip0_387_1829">
<rect width="20" height="20" fill="white" transform="translate(10 10)"/>
</clipPath>
</defs>
</svg>
