<svg width="40" height="40" viewBox="0 0 40 40" fill="none" xmlns="http://www.w3.org/2000/svg">
<path d="M20 40C31.0457 40 40 31.0457 40 20C40 8.9543 31.0457 0 20 0C8.9543 0 0 8.9543 0 20C0 31.0457 8.9543 40 20 40Z" fill="#F2F2F2"/>
<path d="M33.5563 34.6999C29.8678 31.6694 25.1463 29.8502 19.9999 29.8502C14.8531 29.8502 10.1312 31.6698 6.4425 34.7008C6.4425 34.7008 11.2844 40 19.9999 40C28.7155 40 33.5563 34.6999 33.5563 34.6999Z" fill="#2F3135"/>
<path d="M27.0549 13.2548V17.3836C27.0549 21.2641 23.8799 24.4391 19.9989 24.4391C19.7563 24.4391 19.5165 24.4267 19.2801 24.4025C14.5728 23.9206 12.2981 18.3117 14.9994 14.4266L18.94 8.75919" stroke="#8C8C8C" stroke-width="4.97319" stroke-miterlimit="10"/>
</svg>
