<svg width="130" height="130" viewBox="0 0 130 130" fill="none" xmlns="http://www.w3.org/2000/svg">
<rect x="0.25" width="129.5" height="129.5" rx="64.75" fill="#FDF3F2"/>
<path d="M67.8587 39.073C74.3674 32.5643 84.9202 32.5643 91.4289 39.073C97.9377 45.5818 97.9377 56.1345 91.4289 62.6433L82.0008 72.0714C80.6991 73.3731 78.5885 73.3731 77.2868 72.0714C75.985 70.7696 75.985 68.6591 77.2868 67.3573L86.7149 57.9292C90.6201 54.024 90.6201 47.6923 86.7149 43.7871C82.8096 39.8818 76.478 39.8818 72.5727 43.7871L63.1446 53.2152C61.8429 54.5169 59.7324 54.5169 58.4306 53.2152C57.1289 51.9134 57.1289 49.8029 58.4306 48.5011L67.8587 39.073Z" fill="#DD524D"/>
<path d="M53.7166 57.9292C55.0183 59.231 55.0183 61.3415 53.7166 62.6433L44.2885 72.0714C40.3832 75.9766 40.3832 82.3082 44.2885 86.2135C48.1937 90.1187 54.5254 90.1187 58.4306 86.2135L67.8587 76.7854C69.1604 75.4836 71.271 75.4837 72.5727 76.7854C73.8745 78.0871 73.8745 80.1977 72.5727 81.4994L63.1446 90.9275C56.6359 97.4363 46.0832 97.4363 39.5744 90.9275C33.0657 84.4188 33.0657 73.866 39.5744 67.3573L49.0025 57.9292C50.3043 56.6275 52.4148 56.6275 53.7166 57.9292Z" fill="#DD524D"/>
<path d="M90.0483 76.7849C90.0483 78.6259 88.5559 80.1183 86.715 80.1183H82.0009C81.0879 80.1183 80.2606 79.7512 79.6586 79.1566C80.2532 79.7586 80.6202 80.5858 80.6202 81.4988V86.2128C80.6202 88.0538 79.1278 89.5462 77.2869 89.5462C75.4459 89.5462 73.9535 88.0538 73.9535 86.2128V81.4988C73.9535 79.6578 75.4459 78.1655 77.2869 78.1655C78.1999 78.1655 79.0272 78.5325 79.6292 79.1271C79.0346 78.5251 78.6676 77.6979 78.6676 76.7849C78.6676 74.944 80.16 73.4516 82.0009 73.4516H86.715C88.5559 73.4516 90.0483 74.944 90.0483 76.7849Z" fill="#DD524D"/>
<path d="M53.7166 40.4539C51.8757 40.4539 50.3833 41.9462 50.3833 43.7872V48.5012C50.3833 49.4143 50.7504 50.2415 51.345 50.8435C50.743 50.2489 49.9156 49.8818 49.0026 49.8818H44.2885C42.4476 49.8818 40.9552 51.3741 40.9552 53.2151C40.9552 55.056 42.4476 56.5484 44.2885 56.5484H49.0026C50.8435 56.5484 52.3359 55.056 52.3359 53.2151C52.3359 52.3021 51.9688 51.4748 51.3742 50.8728C51.9763 51.4675 52.8036 51.8346 53.7166 51.8346C55.5576 51.8346 57.05 50.3422 57.05 48.5012V43.7872C57.05 41.9462 55.5576 40.4539 53.7166 40.4539Z" fill="#DD524D"/>
</svg>
