<svg width="108" height="108" viewBox="0 0 108 108" fill="none" xmlns="http://www.w3.org/2000/svg">
<g clip-path="url(#clip0_753_5005)">
<rect width="108" height="108" rx="54" fill="#F9FAFB"/>
<path d="M51.7347 157.641V96.8093L-8.09924 62.3782V123.21L51.7347 157.641Z" fill="#98A2B3"/>
<path d="M51.7347 96.809L115.909 59.7319V120.575L51.7347 157.641V96.809Z" fill="#98A2B3"/>
<path opacity="0.15" d="M51.7347 96.809L115.909 59.7319V120.575L51.7347 157.641V96.809Z" fill="white"/>
<path d="M51.7344 96.8091L-9.78217 61.4032L56.0746 23.3513L117.58 58.7573L51.7344 96.8091Z" fill="#98A2B3"/>
<path opacity="0.3" d="M51.7344 96.8091L-9.78217 61.4032L56.0746 23.3513L117.58 58.7573L51.7344 96.8091Z" fill="white"/>
<path d="M51.7344 96.809V107.671L-9.78217 72.2767V61.4031L51.7344 96.809Z" fill="#98A2B3"/>
<path d="M117.58 58.7571L51.7347 96.8089V107.671L117.58 69.6307V58.7571Z" fill="#98A2B3"/>
<path opacity="0.15" d="M117.58 58.7571L51.7347 96.8089V107.671L117.58 69.6307V58.7571Z" fill="white"/>
<path opacity="0.1" d="M-8.04114 73.2399V75.6304L51.7928 110.062V107.671L-8.04114 73.2399ZM115.967 70.594L51.7928 107.729V110.12L115.967 72.9846V70.594Z" fill="black"/>
<path d="M34.129 66.3815L42.9138 71.4528L73.6547 53.6976L64.8699 48.6379L34.129 66.3815Z" fill="#98A2B3"/>
<path opacity="0.2" d="M71.462 54.9741L73.6553 53.6976L64.8705 48.6379L64.8821 51.191L71.462 54.9741Z" fill="black"/>
<path opacity="0.1" d="M36.3339 67.6464L64.8699 51.1678V48.6379L34.129 66.3815L36.3339 67.6464Z" fill="black"/>
<path d="M79.3875 108.159C82.9385 106.116 85.5031 107.95 85.5031 112.685C85.5031 117.419 82.9385 122.212 79.3875 124.289C75.8364 126.367 73.2602 124.498 73.2602 119.775C73.2602 115.052 75.8364 110.213 79.3875 108.159ZM79.3875 120.75C80.4377 120.039 81.2923 119.076 81.8723 117.948C82.4523 116.821 82.7392 115.565 82.7064 114.298C82.7064 111.512 81.3139 110.549 79.3875 111.652C78.3346 112.365 77.4786 113.332 76.8985 114.464C76.3184 115.596 76.033 116.856 76.0685 118.127C76.0685 120.889 77.4611 121.864 79.3875 120.75Z" fill="#FAFAFA"/>
<path d="M92.4317 104.387V116.421L89.635 118.034V106L86.0955 108.054V104.573L95.9711 98.8635V102.345L92.4317 104.387Z" fill="#FAFAFA"/>
<path d="M97.4215 98.0624L105.881 93.1768V96.6582L100.207 99.9307V102.588L104.384 100.174V103.273L100.207 105.687V108.518L106.009 105.188V108.669L97.4679 113.601L97.4215 98.0624Z" fill="#FAFAFA"/>
<path d="M72.6454 50.077L69.8835 55.833L42.9141 71.4529L37.2858 68.2036L52.3951 36.3022L72.6454 50.077Z" fill="#FAFAFA"/>
</g>
<defs>
<clipPath id="clip0_753_5005">
<rect width="108" height="108" rx="54" fill="white"/>
</clipPath>
</defs>
</svg>
