<svg width="173" height="173" viewBox="0 0 173 173" fill="none" xmlns="http://www.w3.org/2000/svg">
<g clip-path="url(#clip0_214_2653)">
<rect width="173" height="173" rx="86.5" fill="#FEF6E7"/>
<path d="M69.6156 138.321L-5.42529 366.747L-12.8141 371.009L62.2269 142.582L69.6156 138.321Z" fill="#455A64"/>
<path d="M-12.8141 371.008L-16.4694 368.917L58.5716 140.471L62.2268 142.582L-12.8141 371.008Z" fill="#263238"/>
<path d="M90.7263 311.234L87.0711 309.123L13.1247 168.228L16.7995 170.339L90.7263 311.234Z" fill="#263238"/>
<path d="M24.1885 166.058L98.1348 306.953L90.7265 311.234L16.7997 170.339L24.1885 166.058Z" fill="#455A64"/>
<path d="M83.3376 255.74L-35 187.423L90.7264 114.826L209.084 183.142L83.3376 255.74Z" fill="#455A64"/>
<path d="M83.3962 247.198V144.732L-17.3882 86.7365V189.202L83.3962 247.198Z" fill="#4D42F0"/>
<path d="M83.3962 144.732L191.491 82.2798V184.765L83.3962 247.198V144.732Z" fill="#4D42F0"/>
<path opacity="0.15" d="M83.3962 144.732L191.491 82.2798V184.765L83.3962 247.198V144.732Z" fill="white"/>
<path d="M83.3964 144.733L-20.2224 85.0947L90.7069 21L194.306 80.6379L83.3964 144.733Z" fill="#4D42F0"/>
<path opacity="0.3" d="M83.3964 144.733L-20.2224 85.0947L90.7069 21L194.306 80.6379L83.3964 144.733Z" fill="white"/>
<path d="M83.3963 144.732V163.028L-20.2224 103.41V85.0946L83.3963 144.732Z" fill="#4D42F0"/>
<path d="M194.306 80.6381L83.3962 144.733V163.029L194.306 98.9536V80.6381Z" fill="#4D42F0"/>
<path opacity="0.15" d="M194.306 80.6381L83.3962 144.733V163.029L194.306 98.9536V80.6381Z" fill="white"/>
<path opacity="0.1" d="M-17.2906 105.032V109.059L83.4938 167.055V163.028L-17.2906 105.032ZM191.589 100.576L83.4938 163.126V167.153L191.589 104.602V100.576Z" fill="black"/>
<path d="M53.7433 93.4801L68.5404 102.022L120.32 72.1153L105.523 63.5928L53.7433 93.4801Z" fill="#4D42F0"/>
<path opacity="0.2" d="M116.626 74.2654L120.32 72.1153L105.523 63.5928L105.543 67.8931L116.626 74.2654Z" fill="black"/>
<path opacity="0.1" d="M57.4572 95.6107L105.523 67.854V63.5928L53.7433 93.4801L57.4572 95.6107Z" fill="black"/>
<path d="M106.442 204.038L99.464 181.989L104.8 178.92L107.811 189.534C109.022 193.717 109.492 195.398 109.511 195.555H109.609C109.609 195.418 110.098 193.131 111.27 187.736L114.32 173.486L119.402 170.554L112.424 200.676L106.442 204.038Z" fill="#FAFAFA"/>
<path d="M129.977 163.85C135.958 160.409 140.278 163.498 140.278 171.473C140.278 179.448 135.958 187.521 129.977 191.02C123.995 194.519 119.656 191.372 119.656 183.416C119.656 175.461 123.995 167.309 129.977 163.85ZM129.977 185.058C131.746 183.861 133.185 182.238 134.162 180.339C135.139 178.44 135.622 176.325 135.567 174.19C135.567 169.499 133.222 167.876 129.977 169.733C128.203 170.935 126.761 172.564 125.784 174.471C124.807 176.377 124.326 178.499 124.386 180.64C124.386 185.293 126.732 186.935 129.977 185.058Z" fill="#FAFAFA"/>
<path d="M151.948 157.497V177.767L147.237 180.484V160.214L141.275 163.674V157.81L157.909 148.192V154.057L151.948 157.497Z" fill="#FAFAFA"/>
<path d="M160.353 146.844L174.603 138.614V144.478L165.044 149.991V154.467L172.081 150.401V155.62L165.044 159.686V164.455L174.817 158.845V164.71L160.431 173.017L160.353 146.844Z" fill="#FAFAFA"/>
<path d="M118.62 66.0168L113.968 75.7121L68.5406 102.022L59.0602 96.5492L84.5104 42.8145L118.62 66.0168Z" fill="#FAFAFA"/>
</g>
<defs>
<clipPath id="clip0_214_2653">
<rect width="173" height="173" rx="86.5" fill="white"/>
</clipPath>
</defs>
</svg>
