<svg width="130" height="130" viewBox="0 0 130 130" fill="none" xmlns="http://www.w3.org/2000/svg">
<g clip-path="url(#clip0_80_11995)">
<rect x="0.25" width="129.5" height="129.5" rx="64.75" fill="#FBEAE9"/>
<path d="M62.2839 189.023V116.081L-9.46143 74.7958V147.738L62.2839 189.023Z" fill="#DD524D"/>
<path d="M62.2837 116.081L139.233 71.6231V144.579L62.2837 189.023V116.081Z" fill="#DD524D"/>
<path opacity="0.15" d="M62.2837 116.081L139.233 71.6231V144.579L62.2837 189.023V116.081Z" fill="white"/>
<path d="M62.2835 116.081L-11.4795 73.627L67.4876 28L141.237 70.4544L62.2835 116.081Z" fill="#DD524D"/>
<path opacity="0.3" d="M62.2835 116.081L-11.4795 73.627L67.4876 28L141.237 70.4544L62.2835 116.081Z" fill="white"/>
<path d="M62.2835 116.081V129.106L-11.4795 86.6652V73.6269L62.2835 116.081Z" fill="#DD524D"/>
<path d="M141.237 70.4543L62.2837 116.081V129.106L141.237 83.4926V70.4543Z" fill="#DD524D"/>
<path opacity="0.15" d="M141.237 70.4543L62.2837 116.081V129.106L141.237 83.4926V70.4543Z" fill="white"/>
<path opacity="0.1" d="M-9.39209 87.8202V90.6866L62.3532 131.972V129.106L-9.39209 87.8202ZM139.303 84.6476L62.3532 129.175V132.042L139.303 87.5141V84.6476Z" fill="black"/>
<path d="M41.1733 79.5964L51.7069 85.6773L88.5675 64.3874L78.0339 58.3205L41.1733 79.5964Z" fill="#DD524D"/>
<path opacity="0.2" d="M85.9384 65.9181L88.5683 64.3874L78.0347 58.3205L78.0486 61.3818L85.9384 65.9181Z" fill="black"/>
<path opacity="0.1" d="M43.8172 81.1131L78.0339 61.354V58.3205L41.1733 79.5964L43.8172 81.1131Z" fill="black"/>
<path d="M95.4413 129.69C99.6993 127.241 102.774 129.44 102.774 135.117C102.774 140.794 99.6993 146.541 95.4413 149.032C91.1833 151.523 88.0942 149.282 88.0942 143.619C88.0942 137.956 91.1833 132.153 95.4413 129.69ZM95.4413 144.788C96.7006 143.936 97.7253 142.781 98.4208 141.429C99.1163 140.076 99.4602 138.571 99.421 137.051C99.421 133.712 97.7512 132.557 95.4413 133.879C94.1789 134.734 93.1524 135.894 92.4568 137.251C91.7612 138.608 91.419 140.119 91.4617 141.643C91.4617 144.955 93.1314 146.124 95.4413 144.788Z" fill="#FAFAFA"/>
<path d="M111.082 125.168V139.598L107.729 141.532V127.102L103.485 129.565V125.39L115.326 118.544V122.719L111.082 125.168Z" fill="#FAFAFA"/>
<path d="M117.065 117.584L127.209 111.726V115.9L120.405 119.824V123.011L125.414 120.117V123.832L120.405 126.726V130.121L127.362 126.128V130.302L117.121 136.216L117.065 117.584Z" fill="#FAFAFA"/>
<path d="M87.3572 60.046L84.0455 66.9478L51.7072 85.6773L44.9585 81.7811L63.0757 43.529L87.3572 60.046Z" fill="#FAFAFA"/>
</g>
<defs>
<clipPath id="clip0_80_11995">
<rect x="0.25" width="129.5" height="129.5" rx="64.75" fill="white"/>
</clipPath>
</defs>
</svg>
