<svg width="222" height="179" viewBox="0 0 222 179" fill="none" xmlns="http://www.w3.org/2000/svg">
<path d="M189.305 154.073L121.054 361.832L114.333 365.726L182.585 157.949L189.305 154.073Z" fill="#455A64"/>
<path d="M114.333 365.726L111.009 363.806L179.243 156.046L182.585 157.949L114.333 365.726Z" fill="#263238"/>
<path d="M95.1505 99.7065L26.8989 307.466L20.1786 311.342L88.4302 103.582L95.1505 99.7065Z" fill="#455A64"/>
<path d="M20.1786 311.342L16.854 309.439L85.1056 101.662L88.4302 103.582L20.1786 311.342Z" fill="#263238"/>
<path d="M114.351 256.975L111.027 255.055L43.7706 126.908L47.113 128.828L114.351 256.975Z" fill="#263238"/>
<path d="M53.8333 124.934L121.089 253.082L114.351 256.975L47.113 128.828L53.8333 124.934Z" fill="#455A64"/>
<path d="M107.631 206.502L0 144.366L114.351 78.3367L222 140.473L107.631 206.502Z" fill="#455A64"/>
<path d="M107.631 214.271V206.502L222 140.473V148.242L107.631 214.271Z" fill="#37474F"/>
<path d="M107.631 214.271V206.502L0 144.366L0.0355646 152.1L107.631 214.271Z" fill="#263238"/>
<path d="M107.684 198.733V105.538L16.0184 52.7891V145.984L107.684 198.733Z" fill="#4D42F0"/>
<path d="M107.684 105.538L205.999 48.7355V141.948L107.684 198.733V105.538Z" fill="#4D42F0"/>
<path opacity="0.15" d="M107.684 105.538L205.999 48.7355V141.948L107.684 198.733V105.538Z" fill="white"/>
<path d="M107.684 105.538L13.4406 51.2957L114.333 -7L208.559 47.2422L107.684 105.538Z" fill="#4D42F0"/>
<path opacity="0.3" d="M107.684 105.538L13.4406 51.2957L114.333 -7L208.559 47.2422L107.684 105.538Z" fill="white"/>
<path d="M107.684 105.538V122.178L13.4406 67.9541V51.2957L107.684 105.538Z" fill="#4D42F0"/>
<path d="M208.559 47.2421L107.684 105.538V122.178L208.559 63.9006V47.2421Z" fill="#4D42F0"/>
<path opacity="0.15" d="M208.559 47.2421L107.684 105.538V122.178L208.559 63.9006V47.2421Z" fill="white"/>
<path opacity="0.1" d="M16.1074 69.4297V73.0921L107.773 125.841V122.178L16.1074 69.4297ZM206.088 65.3762L107.773 122.267V125.93L206.088 69.0386V65.3762Z" fill="black"/>
<path d="M80.7144 58.9226L94.1727 66.6918L141.268 39.4907L127.81 31.7393L80.7144 58.9226Z" fill="#4D42F0"/>
<path opacity="0.2" d="M137.908 41.4464L141.268 39.4907L127.81 31.7393L127.827 35.6506L137.908 41.4464Z" fill="black"/>
<path opacity="0.1" d="M84.0923 60.8604L127.81 35.615V31.7393L80.7144 58.9226L84.0923 60.8604Z" fill="black"/>
<path d="M128.645 159.478L122.298 139.424L127.152 136.632L129.89 146.286C130.992 150.091 131.419 151.62 131.436 151.762H131.525C131.525 151.637 131.97 149.557 133.036 144.65L135.81 131.69L140.432 129.023L134.085 156.42L128.645 159.478Z" fill="#FAFAFA"/>
<path d="M150.05 122.925C155.491 119.796 159.42 122.605 159.42 129.859C159.42 137.112 155.491 144.455 150.05 147.637C144.61 150.82 140.663 147.957 140.663 140.721C140.663 133.486 144.61 126.072 150.05 122.925ZM150.05 142.215C151.659 141.126 152.969 139.65 153.857 137.923C154.746 136.195 155.185 134.272 155.135 132.33C155.135 128.063 153.002 126.588 150.05 128.277C148.438 129.369 147.126 130.851 146.237 132.585C145.349 134.319 144.911 136.249 144.966 138.197C144.966 142.428 147.099 143.922 150.05 142.215Z" fill="#FAFAFA"/>
<path d="M170.033 117.147V135.584L165.749 138.055V119.618L160.326 122.765V117.432L175.456 108.685V114.018L170.033 117.147Z" fill="#FAFAFA"/>
<path d="M177.678 107.458L190.639 99.9731V105.307L181.945 110.32V114.391L188.345 110.694V115.44L181.945 119.138V123.476L190.834 118.374V123.707L177.749 131.263L177.678 107.458Z" fill="#FAFAFA"/>
<path d="M139.721 33.9439L135.49 42.762L94.1727 66.6919L85.5501 61.7139L108.698 12.8408L139.721 33.9439Z" fill="#FAFAFA"/>
</svg>
